<svg width="1200" height="630" xmlns="http://www.w3.org/2000/svg">
  <defs>
    <linearGradient id="bg" x1="0%" y1="0%" x2="100%" y2="100%">
      <stop offset="0%" style="stop-color:#fafafa"/>
      <stop offset="100%" style="stop-color:#f5f5f5"/>
    </linearGradient>
  </defs>

  <!-- Background -->
  <rect width="1200" height="630" fill="url(#bg)"/>

  <!-- Scattered icons -->
  <g opacity="0.12">
    <!-- Controller (top left) -->
    <g transform="translate(100, 80) scale(4)">
      <rect x="2" y="8" width="20" height="12" rx="2" stroke="#1a1a1a" stroke-width="1.5" fill="none"/>
      <circle cx="7" cy="14" r="2" stroke="#1a1a1a" stroke-width="1.5" fill="none"/>
      <circle cx="17" cy="14" r="2" stroke="#1a1a1a" stroke-width="1.5" fill="none"/>
      <line x1="10" y1="12" x2="14" y2="12" stroke="#1a1a1a" stroke-width="1.5"/>
      <line x1="12" y1="10" x2="12" y2="14" stroke="#1a1a1a" stroke-width="1.5"/>
    </g>

    <!-- Star (top right) -->
    <g transform="translate(980, 60) scale(4)">
      <polygon points="12,2 15,9 22,9 16,14 18,21 12,17 6,21 8,14 2,9 9,9" stroke="#1a1a1a" stroke-width="1.5" fill="none"/>
    </g>

    <!-- Lightbulb (bottom left) -->
    <g transform="translate(150, 420) scale(4)">
      <path d="M12 2a7 7 0 0 0-4 12.7V17a1 1 0 0 0 1 1h6a1 1 0 0 0 1-1v-2.3A7 7 0 0 0 12 2z" stroke="#1a1a1a" stroke-width="1.5" fill="none"/>
      <line x1="9" y1="21" x2="15" y2="21" stroke="#1a1a1a" stroke-width="1.5"/>
    </g>

    <!-- Heart (bottom right) -->
    <g transform="translate(950, 400) scale(4)">
      <path d="M12 21.35l-1.45-1.32C5.4 15.36 2 12.28 2 8.5 2 5.42 4.42 3 7.5 3c1.74 0 3.41.81 4.5 2.09C13.09 3.81 14.76 3 16.5 3 19.58 3 22 5.42 22 8.5c0 3.78-3.4 6.86-8.55 11.54L12 21.35z" stroke="#1a1a1a" stroke-width="1.5" fill="none"/>
    </g>

    <!-- Handheld (left center) -->
    <g transform="translate(80, 240) scale(3.5)">
      <rect x="4" y="2" width="16" height="20" rx="2" stroke="#1a1a1a" stroke-width="1.5" fill="none"/>
      <rect x="6" y="4" width="12" height="8" stroke="#1a1a1a" stroke-width="1.5" fill="none"/>
      <circle cx="9" cy="16" r="1.5" stroke="#1a1a1a" stroke-width="1.5" fill="none"/>
      <circle cx="15" cy="16" r="1.5" stroke="#1a1a1a" stroke-width="1.5" fill="none"/>
    </g>

    <!-- Mushroom (right center) -->
    <g transform="translate(1020, 250) scale(3.5)">
      <ellipse cx="12" cy="10" rx="8" ry="6" stroke="#1a1a1a" stroke-width="1.5" fill="none"/>
      <path d="M8 14 Q8 22 12 22 Q16 22 16 14" stroke="#1a1a1a" stroke-width="1.5" fill="none"/>
      <circle cx="10" cy="8" r="2" stroke="#1a1a1a" stroke-width="1" fill="none"/>
      <circle cx="15" cy="9" r="1.5" stroke="#1a1a1a" stroke-width="1" fill="none"/>
    </g>
  </g>

  <!-- Center large controller icon -->
  <g transform="translate(500, 215) scale(8)" opacity="0.15">
    <rect x="2" y="8" width="20" height="12" rx="2" stroke="#1a1a1a" stroke-width="1" fill="none"/>
    <circle cx="7" cy="14" r="2" stroke="#1a1a1a" stroke-width="1" fill="none"/>
    <circle cx="17" cy="14" r="2" stroke="#1a1a1a" stroke-width="1" fill="none"/>
    <line x1="10" y1="12" x2="14" y2="12" stroke="#1a1a1a" stroke-width="1"/>
    <line x1="12" y1="10" x2="12" y2="14" stroke="#1a1a1a" stroke-width="1"/>
  </g>

  <!-- Accent line at bottom -->
  <rect x="540" y="560" width="120" height="4" rx="2" fill="#ff3b30"/>
</svg>
